<svg id="Capa_1" data-name="Capa 1" xmlns="http://www.w3.org/2000/svg" viewBox="0 0 384 480.01"><defs><style>.cls-1{fill:#32bfbe;}</style></defs><title>bulb-blue</title><path class="cls-1" d="M240,48a8,8,0,0,0,8-8V8a8,8,0,0,0-16,0V40A8,8,0,0,0,240,48Z" transform="translate(-48)"/><path class="cls-1" d="M141.07,36.66l16,27.7A8,8,0,1,0,171,56.45a.41.41,0,0,0,0-.09l-16-27.7A8,8,0,0,0,141,36.56.93.93,0,0,1,141.07,36.66Z" transform="translate(-48)"/><path class="cls-1" d="M76.57,106.88l.09.05,27.7,16a8,8,0,0,0,8.09-13.81l-.09-.05-27.7-16a8,8,0,0,0-8.09,13.81Z" transform="translate(-48)"/><path class="cls-1" d="M96,192a8,8,0,0,0-8-8H56a8,8,0,0,0,0,16H88A8,8,0,0,0,96,192Z" transform="translate(-48)"/><path class="cls-1" d="M104.46,261l-.1.05-27.7,16A8,8,0,0,0,84.56,291l.1-.05,27.7-16a8,8,0,0,0-7.9-13.91Z" transform="translate(-48)"/><path class="cls-1" d="M403.44,277.13l-.09-.06-27.71-16a8,8,0,0,0-8.09,13.8l.09.06,27.71,16a8,8,0,0,0,8.09-13.8Z" transform="translate(-48)"/><path class="cls-1" d="M424,184H392a8,8,0,0,0,0,16h32a8,8,0,0,0,0-16Z" transform="translate(-48)"/><path class="cls-1" d="M371.65,124a8,8,0,0,0,4-1.07l27.71-16A8,8,0,0,0,395.45,93l-.1,0-27.7,16a8,8,0,0,0,4,14.93Z" transform="translate(-48)"/><path class="cls-1" d="M312,67.29h0a8,8,0,0,0,10.93-2.94h0l16-27.7a8,8,0,0,0-13.8-8.1l-.06.09-16,27.71A8,8,0,0,0,312,67.29Z" transform="translate(-48)"/><path class="cls-1" d="M256,320a8,8,0,0,0,8-8V224h16a32,32,0,1,0-32-32v16H232V192a32,32,0,1,0-32,32h16v88a8,8,0,0,0,16,0V224h16v88A8,8,0,0,0,256,320Zm8-128a16,16,0,1,1,16,16H264Zm-48,16H200a16,16,0,1,1,16-16Z" transform="translate(-48)"/><path class="cls-1" d="M246.22,64.15a128,128,0,0,0-87.35,226.79,23.84,23.84,0,0,1,9.13,18.3V328a24,24,0,0,0,16,22.53V360a23.87,23.87,0,0,0,6.24,16,23.63,23.63,0,0,0,0,32A23.9,23.9,0,0,0,208,448a8.45,8.45,0,0,0,5.68-13.68,8.45,8.45,0,0,0-2.22-1.46c-.23-.12-.46-.21-.7-.31a8.68,8.68,0,0,0-2.52-.5c-.08,0-.16-.05-.24-.05a8,8,0,0,1,0-16h32a8,8,0,0,0,0-16H208a8,8,0,0,1,0-16h32a8,8,0,0,0,0-16H208a8,8,0,0,1-8-8v-8h40a8,8,0,0,0,0-16H192a8,8,0,0,1-8-8V309.24a39.77,39.77,0,0,0-15-30.68,112,112,0,0,1,76.46-198.4A113.28,113.28,0,0,1,352,191.32,111.32,111.32,0,0,1,310.44,279,39.68,39.68,0,0,0,296,310.17V328a8,8,0,0,1-8,8H264a8,8,0,0,0,0,16h16v8a8,8,0,0,1-8,8h-8a8,8,0,0,0,0,16h8a8,8,0,0,1,0,16h-8a8,8,0,0,0,0,16h8a8,8,0,0,1,0,16H232a8,8,0,0,0,0,16h30.64a24,24,0,0,1-40.57,7.94,8,8,0,0,0-11.95,10.64,39.9,39.9,0,0,0,69.2-19.84A23.76,23.76,0,0,0,289.76,408a23.63,23.63,0,0,0,0-32A23.82,23.82,0,0,0,296,360v-9.47A24,24,0,0,0,312,328V310.17a24.08,24.08,0,0,1,8.49-18.7A127.21,127.21,0,0,0,368,191.2,129.48,129.48,0,0,0,246.22,64.15Z" transform="translate(-48)"/></svg>