<svg id="Capa_1" data-name="Capa 1" xmlns="http://www.w3.org/2000/svg" viewBox="0 0 496 496"><defs><style>.cls-1{fill:#32bfbe;}</style></defs><title>cc-blue</title><path class="cls-1" d="M156.79,164A24,24,0,1,1,136,128V112a40,40,0,1,0,34.65,60Z"/><path class="cls-1" d="M352,240h72a72.08,72.08,0,0,0,72-72V120a72.08,72.08,0,0,0-72-72H325.77l-16-48H202.23l-16,48H88A88.1,88.1,0,0,0,0,136v8H48.41c-.24,2.64-.41,5.3-.41,8a88.1,88.1,0,0,0,88,88H256a47.87,47.87,0,0,0,16,35.68V392a40,40,0,0,0,40,40H432v24a40,40,0,0,0,40,40h24V304H472a40,40,0,0,0-40,40v24H336V275.68A47.87,47.87,0,0,0,352,240Zm96,104a24,24,0,0,1,24-24h8V480h-8a24,24,0,0,1-24-24ZM213.77,16h84.47L308.9,48H203.1ZM424,64a56.06,56.06,0,0,1,56,56v8H175.64a87.94,87.94,0,0,0-37.25-64ZM16.44,128A72.1,72.1,0,0,1,88,64a71.37,71.37,0,0,1,22.74,3.74A88.26,88.26,0,0,0,51.41,128ZM64,152a72,72,0,0,1,69.34-71.86A71.88,71.88,0,0,1,160,136v8h47.53a73.55,73.55,0,0,1,.47,8,72,72,0,0,1-144,0Zm194.8,72H186.44A87.93,87.93,0,0,0,224,152c0-2.67-.16-5.34-.4-8H480v24a56.06,56.06,0,0,1-56,56H349.2a47.92,47.92,0,0,0-90.4,0ZM416,384h16v32H416Zm-16,0v32H312a24,24,0,0,1-24-24V285.2a47.11,47.11,0,0,0,32,0V368a16,16,0,0,0,16,16ZM304,272a32,32,0,1,1,32-32A32,32,0,0,1,304,272Z"/><path class="cls-1" d="M368,160v48h64V160Zm48,32H384V176h32Z"/><rect class="cls-1" x="184" y="80" width="128" height="16"/><rect class="cls-1" x="368" y="96" width="16" height="16"/><rect class="cls-1" x="400" y="96" width="16" height="16"/><rect class="cls-1" x="432" y="96" width="16" height="16"/></svg>