<svg id="Layer_1" data-name="Layer 1" xmlns="http://www.w3.org/2000/svg" xmlns:xlink="http://www.w3.org/1999/xlink" viewBox="0 0 416 153"><defs><style>.cls-1{fill:none;}.cls-2{clip-path:url(#clip-path);}.cls-3{fill:#020b26;}</style><clipPath id="clip-path" transform="translate(-12 -19)"><rect class="cls-1" x="12" y="19" width="416" height="153"/></clipPath></defs><title>izone-logo</title><g id="Group_239" data-name="Group 239"><g id="Group_237" data-name="Group 237"><g class="cls-2"><g id="Group_236" data-name="Group 236"><path id="Path_217" data-name="Path 217" class="cls-3" d="M149.71,67l-3-6.77a2.79,2.79,0,0,0-2.54-1.66h-56a2.77,2.77,0,0,0-2.77,2.77v10.4a2.77,2.77,0,0,0,2.77,2.77h36.68L85.57,121.25a2.77,2.77,0,0,0-.4,2.92l3,6.77a2.78,2.78,0,0,0,2.54,1.66h56a2.77,2.77,0,0,0,2.77-2.77v-10.4a2.77,2.77,0,0,0-2.77-2.77H110L149.3,69.93a2.78,2.78,0,0,0,.41-2.91" transform="translate(-12 -19)"/><path id="Path_218" data-name="Path 218" class="cls-3" d="M188.79,58.58A37,37,0,1,0,225.87,95.5a37,37,0,0,0-37.08-36.92m0,58.07a21.06,21.06,0,1,1,21.14-21.14,21.06,21.06,0,0,1-21.14,21.14" transform="translate(-12 -19)"/><path id="Path_219" data-name="Path 219" class="cls-3" d="M266,58.42a33.61,33.61,0,0,0-16.26,4.65V61.2A2.77,2.77,0,0,0,247,58.43H236.59a2.77,2.77,0,0,0-2.77,2.77h0v68.61a2.77,2.77,0,0,0,2.75,2.78H247a2.77,2.77,0,0,0,2.77-2.77h0V90.62a16.34,16.34,0,0,1,32.68,0V129.8a2.77,2.77,0,0,0,2.75,2.78h10.4a2.77,2.77,0,0,0,2.77-2.77h0V90.62A32.31,32.31,0,0,0,266,58.42" transform="translate(-12 -19)"/><path id="Path_220" data-name="Path 220" class="cls-3" d="M343.22,58.58a37,37,0,1,0,18.52,68.92,37.5,37.5,0,0,0,12.78-12.11l1.16-1.84a2.77,2.77,0,0,0-.85-3.82,2.84,2.84,0,0,0-1.5-.43H360.57a2.78,2.78,0,0,0-2,.88,21,21,0,0,1-15.32,6.62,21.37,21.37,0,0,1-19.7-13.32h50.23a2.78,2.78,0,0,0,2-.81l3.62-3.62a2.78,2.78,0,0,0,.81-2V95.5a37,37,0,0,0-36.92-36.92m0,15.78a21.06,21.06,0,0,1,19.71,13.32H323.52a21.37,21.37,0,0,1,19.7-13.32" transform="translate(-12 -19)"/><path id="Path_221" data-name="Path 221" class="cls-3" d="M73.06,79.69H62.67a2.77,2.77,0,0,0-2.77,2.77V129.8a2.77,2.77,0,0,0,2.75,2.78H73a2.77,2.77,0,0,0,2.77-2.77h0V82.47A2.77,2.77,0,0,0,73,79.7" transform="translate(-12 -19)"/><path id="Path_222" data-name="Path 222" class="cls-3" d="M73.06,58.42H62.67a2.77,2.77,0,0,0-2.77,2.77V71.73a2.77,2.77,0,0,0,2.77,2.77H73.05a2.77,2.77,0,0,0,2.77-2.77V61.2a2.77,2.77,0,0,0-2.77-2.77" transform="translate(-12 -19)"/><path id="Path_223" data-name="Path 223" class="cls-3" d="M386,50.51a10.25,10.25,0,0,1,5,1.29,9.35,9.35,0,0,1,3.73,3.7,10.07,10.07,0,0,1,0,10.06A9.45,9.45,0,0,1,391,69.27a10,10,0,0,1-10,0,9.45,9.45,0,0,1-3.71-3.71,10,10,0,0,1,0-10.06A9.29,9.29,0,0,1,381,51.8a10.26,10.26,0,0,1,5-1.29m0,2a8.11,8.11,0,0,0-4,1,7.54,7.54,0,0,0-3,3,8.12,8.12,0,0,0,0,8.09,7.65,7.65,0,0,0,3,3,8,8,0,0,0,8,0,7.72,7.72,0,0,0,3-3,8.07,8.07,0,0,0,0-8.09,7.54,7.54,0,0,0-3-3,8.29,8.29,0,0,0-4-1m-4.54,13.46V55.27h2.16c2,0,3.17,0,3.41,0a4.38,4.38,0,0,1,1.67.42,2.77,2.77,0,0,1,1,1,2.92,2.92,0,0,1,.4,1.53,2.8,2.8,0,0,1-.75,2,3.47,3.47,0,0,1-2.12,1,2.71,2.71,0,0,1,.75.4,5.1,5.1,0,0,1,.72.82c.08.1.34.54.79,1.3l1.26,2.15h-2.68l-.89-1.73a7.2,7.2,0,0,0-1.51-2.2,2.42,2.42,0,0,0-1.5-.45h-.56v4.38Zm2.17-6.06h.87a10.11,10.11,0,0,0,2.33-.15,1.39,1.39,0,0,0,1-1.32,1.3,1.3,0,0,0-.25-.79,1.38,1.38,0,0,0-.73-.5A10.06,10.06,0,0,0,384.5,57h-.87Z" transform="translate(-12 -19)"/><path id="Path_224" data-name="Path 224" class="cls-3" d="M388.21,172H51.8A39.84,39.84,0,0,1,12,132.2V58.8A39.85,39.85,0,0,1,51.8,19h340c21,0,36.19,16.74,36.19,39.8v73.41A39.83,39.83,0,0,1,388.21,172M51.8,28.25A30.59,30.59,0,0,0,21.25,58.8v73.41A30.59,30.59,0,0,0,51.8,162.76H388.2a30.58,30.58,0,0,0,30.54-30.55V58.8c0-18-11.07-30.55-26.94-30.55Z" transform="translate(-12 -19)"/></g></g></g></g></svg>