<svg id="Capa_1" data-name="Capa 1" xmlns="http://www.w3.org/2000/svg" viewBox="0 0 507.9 382.5"><defs><style>.cls-1{fill:#32bfbe;}</style></defs><title>sun-blue</title><path class="cls-1" d="M319.5,172.9v16.5c49.7,0,90.1,40.6,90.1,90.6H426C426.1,220.9,378.3,172.9,319.5,172.9Z" transform="translate(-0.1 -53.9)"/><path class="cls-1" d="M466.1,295.5a144.17,144.17,0,0,0,.9-15.6c0-81.7-66.2-148.2-147.5-148.2a146,146,0,0,0-78.7,23c.2-2.2.5-4.3.5-6.5,0-52-42.1-94.3-93.8-94.3S53.7,96.2,53.7,148.2a94.39,94.39,0,0,0,39.5,76.7,107.25,107.25,0,0,0-27.3,63.7A74,74,0,0,0,.1,362.3c0,40.9,33.1,74.1,73.7,74.1H434.3c40.7,0,73.7-33.2,73.7-74.1A74.4,74.4,0,0,0,466.1,295.5ZM70,148.2c0-42.9,34.7-77.8,77.4-77.8s77.4,34.9,77.4,77.8a79.8,79.8,0,0,1-2.7,20.6A150,150,0,0,0,200,193.2a106.18,106.18,0,0,0-94.9,20.1A77.94,77.94,0,0,1,70,148.2ZM434.3,419.9H73.7a57.6,57.6,0,0,1,0-115.2h8.2v-8.2c0-49.9,40.4-90.6,90.1-90.6,14.4,0,34.7,6.8,34.7,6.8s38.7-64.4,112.8-64.4c72.3,0,131.1,59.1,131.1,131.7a140.76,140.76,0,0,1-2.6,26.1l6.2,2.3a57.6,57.6,0,0,1-19.9,111.5Z" transform="translate(-0.1 -53.9)"/></svg>