<svg id="Icons" xmlns="http://www.w3.org/2000/svg" viewBox="0 0 249.14 484.35"><defs><style>.cls-1{fill:#172434;}</style></defs><title>temp-dark</title><path class="cls-1" d="M206,190.13a6.92,6.92,0,0,1-6.92-6.92V162.73a6.92,6.92,0,0,1,13.84,0v20.48A6.92,6.92,0,0,1,206,190.13Z" transform="translate(-131.4 -13.82)"/><path class="cls-1" d="M256,498.16c-2,0-4-.05-6-.14a124.45,124.45,0,0,1-51-235V231.65a6.92,6.92,0,0,1,13.84,0v35.63a6.91,6.91,0,0,1-4,6.22A110.83,110.83,0,0,0,145.3,376.23,112.42,112.42,0,0,0,250.71,484.17a110.72,110.72,0,0,0,115.87-105.3c.08-1.74.12-3.5.12-5.25A111.12,111.12,0,0,0,303,273.54a6.91,6.91,0,0,1-4-6.23V70.71a43.07,43.07,0,0,0-86.14,0h0V114.3a6.92,6.92,0,0,1-13.84,0V70.71a56.91,56.91,0,0,1,113.81,0V263A124.45,124.45,0,0,1,256,498.16Z" transform="translate(-131.4 -13.82)"/><path class="cls-1" d="M256,449.73a76.11,76.11,0,1,1,76.11-76.11A76.12,76.12,0,0,1,256,449.73Zm0-138.38a62.27,62.27,0,1,0,62.27,62.27A62.27,62.27,0,0,0,256,311.35Z" transform="translate(-131.4 -13.82)"/><path class="cls-1" d="M256,311.35a6.92,6.92,0,0,1-6.92-6.92V103.78a6.92,6.92,0,0,1,13.84,0V304.43A6.92,6.92,0,0,1,256,311.35Z" transform="translate(-131.4 -13.82)"/><path class="cls-1" d="M373.62,90H339a6.92,6.92,0,1,1,0-13.84h34.59a6.92,6.92,0,1,1,0,13.84Z" transform="translate(-131.4 -13.82)"/><path class="cls-1" d="M359.78,137.61H339a6.92,6.92,0,1,1,0-13.84h20.75a6.92,6.92,0,1,1,0,13.84Z" transform="translate(-131.4 -13.82)"/><path class="cls-1" d="M373.62,185.27H339a6.92,6.92,0,1,1,0-13.83h34.59a6.92,6.92,0,1,1,0,13.83Z" transform="translate(-131.4 -13.82)"/><path class="cls-1" d="M359.78,232.94H339a6.92,6.92,0,0,1,0-13.84h20.75a6.92,6.92,0,1,1,0,13.84Z" transform="translate(-131.4 -13.82)"/></svg>