<svg id="Icons" height="512" viewBox="0 0 74 74" width="512" xmlns="http://www.w3.org/2000/svg"><path d="m29.77 27.48a1 1 0 0 1 -1-1v-2.96a1 1 0 0 1 2 0v2.96a1 1 0 0 1 -1 1z"/><path d="m37.006 72c-.287 0-.573-.007-.862-.02a17.987 17.987 0 0 1 -7.374-33.972v-4.528a1 1 0 0 1 2 0v5.15a1 1 0 0 1 -.574.9 16.019 16.019 0 0 0 -9.196 14.847 16.248 16.248 0 0 0 15.236 15.6 16 16 0 0 0 16.764-15.977 16.065 16.065 0 0 0 -9.206-14.465 1 1 0 0 1 -.574-.9v-28.415a6.225 6.225 0 0 0 -12.45 0v6.3a1 1 0 0 1 -2 0v-6.3a8.225 8.225 0 0 1 16.45 0v27.788a18.076 18.076 0 0 1 9.78 15.992 18 18 0 0 1 -17.994 18z"/><path d="m37 65a11 11 0 1 1 11-11 11.013 11.013 0 0 1 -11 11zm0-20a9 9 0 1 0 9 9 9.011 9.011 0 0 0 -9-9z"/><path d="m37 45a1 1 0 0 1 -1-1v-29a1 1 0 0 1 2 0v29a1 1 0 0 1 -1 1z"/><path d="m54 13h-5a1 1 0 0 1 0-2h5a1 1 0 0 1 0 2z"/><path d="m52 19.889h-3a1 1 0 0 1 0-2h3a1 1 0 0 1 0 2z"/><path d="m54 26.778h-5a1 1 0 0 1 0-2h5a1 1 0 0 1 0 2z"/><path d="m52 33.667h-3a1 1 0 0 1 0-2h3a1 1 0 0 1 0 2z"/></svg>