<svg id="Layer_1" data-name="Layer 1" xmlns="http://www.w3.org/2000/svg" viewBox="0 0 512 444.92"><defs><style>.cls-1{fill:#32bfbe;}</style></defs><title>tv-blue</title><path class="cls-1" d="M427.31,397.27c-10.07,10.07-2.84,27.3,11.31,27.3,14.3,0,21.3-17.32,11.31-27.3A16,16,0,0,0,427.31,397.27Zm50.52-27.9a8.53,8.53,0,0,1-12.06,12.07,38.36,38.36,0,0,0-54.29,0,8.53,8.53,0,0,1-12.06-12.07,55.41,55.41,0,0,1,78.41,0Zm31.67-19.6a8.53,8.53,0,0,1-12.06,0,83.13,83.13,0,0,0-117.63,0,8.53,8.53,0,1,1-12.06-12.07,100.18,100.18,0,0,1,141.75,0,8.54,8.54,0,0,1,0,12.07ZM348.69,389.82a8.53,8.53,0,0,1-8.53,8.53h-306A34.16,34.16,0,0,1,0,364.23V64.6A34.17,34.17,0,0,1,34.12,30.47H477.71A34.16,34.16,0,0,1,511.83,64.6V272.88a8.53,8.53,0,1,1-17.06,0V64.6a17.08,17.08,0,0,0-17.06-17.07H34.12A17.09,17.09,0,0,0,17.06,64.6V364.23a17.08,17.08,0,0,0,17.06,17.06h306A8.53,8.53,0,0,1,348.69,389.82Zm-31.65,77c0,4.71-2.6,8.53-5.81,8.53H200.77c-3.21,0-5.81-3.82-5.81-8.53s2.6-8.53,5.81-8.53h17.14l6.52-43.07c.7-4.6,3.8-7.5,6.94-6.48s5.11,5.58,4.41,10.18l-6,39.37h52.36l-6-39.37c-.7-4.6,1.28-9.15,4.41-10.18s6.24,1.88,6.94,6.48l6.52,43.07h17.14c3.21,0,5.81,3.82,5.81,8.53Zm11.68-114.78a6.68,6.68,0,0,1-6.69,6.69H81.85A26.81,26.81,0,0,1,55.07,332V96.83A26.81,26.81,0,0,1,81.85,70.05H430a26.82,26.82,0,0,1,26.78,26.78V260.3a6.7,6.7,0,1,1-13.39,0V96.83A13.41,13.41,0,0,0,430,83.44H81.85A13.41,13.41,0,0,0,68.46,96.83V332a13.4,13.4,0,0,0,13.39,13.39H322A6.69,6.69,0,0,1,328.72,352.08Z" transform="translate(0 -30.47)"/></svg>