<svg id="Capa_1" data-name="Capa 1" xmlns="http://www.w3.org/2000/svg" viewBox="0 0 512 338.31"><defs><style>.cls-1{fill:#32bfbe;}</style></defs><title>waves-blue</title><path class="cls-1" d="M229.32,189a17,17,0,0,0-17,17V306a17,17,0,1,0,34.06,0v-99.9A17,17,0,0,0,229.32,189Z" transform="translate(0 -86.85)"/><path class="cls-1" d="M176.53,136.23a17,17,0,0,0-17,17V358.75a17,17,0,1,0,34.06,0V153.26A17,17,0,0,0,176.53,136.23Z" transform="translate(0 -86.85)"/><path class="cls-1" d="M123.18,86.85a17,17,0,0,0-17,17V408.12a17,17,0,1,0,34,0V103.88A17,17,0,0,0,123.18,86.85Z" transform="translate(0 -86.85)"/><path class="cls-1" d="M70.39,136.23a17,17,0,0,0-17,17V358.75a17,17,0,1,0,34.06,0V153.26A17,17,0,0,0,70.39,136.23Z" transform="translate(0 -86.85)"/><path class="cls-1" d="M17,185.61a17,17,0,0,0-17,17V309.36a17,17,0,0,0,34.06,0V202.64A17,17,0,0,0,17,185.61Z" transform="translate(0 -86.85)"/><path class="cls-1" d="M388.83,86.85a17,17,0,0,0-17,17V408.12a17,17,0,1,0,34.05,0V103.88A17,17,0,0,0,388.83,86.85Z" transform="translate(0 -86.85)"/><path class="cls-1" d="M335.47,136.23a17,17,0,0,0-17,17V358.75a17,17,0,1,0,34.06,0V153.26A17,17,0,0,0,335.47,136.23Z" transform="translate(0 -86.85)"/><path class="cls-1" d="M282.68,162.91a17,17,0,0,0-17,17V332.06a17,17,0,1,0,34.06,0V179.94A17,17,0,0,0,282.68,162.91Z" transform="translate(0 -86.85)"/><path class="cls-1" d="M441.61,136.23a17,17,0,0,0-17,17V358.75a17,17,0,1,0,34.05,0V153.26A17,17,0,0,0,441.61,136.23Z" transform="translate(0 -86.85)"/><path class="cls-1" d="M495,185.61a17,17,0,0,0-17,17V309.36a17,17,0,1,0,34.06,0V202.64A17,17,0,0,0,495,185.61Z" transform="translate(0 -86.85)"/></svg>